<?xml version="1.0" encoding="UTF-8" standalone="no"?>
<!DOCTYPE svg PUBLIC "-//W3C//DTD SVG 1.1//EN" "http://www.w3.org/Graphics/SVG/1.1/DTD/svg11.dtd">
<svg width="100%" height="100%" viewBox="0 0 55 28" version="1.1" xmlns="http://www.w3.org/2000/svg" xmlns:xlink="http://www.w3.org/1999/xlink" xml:space="preserve" xmlns:serif="http://www.serif.com/" style="fill-rule:evenodd;clip-rule:evenodd;stroke-linejoin:round;stroke-miterlimit:1.41421;">
    <g id="ArtBoard1" transform="matrix(1.11637,0,0,1,0.297635,0)">
        <rect x="-0.267" y="0" width="49.267" height="28" style="fill:none;"/>
        <g id="dribbble" transform="matrix(0.011609,0,0,0.01296,-5.09151,0.690952)">
            <path d="M4442.49,1302.67C4279.55,1578.92 4021.5,1498.76 3944,1436C3911.02,1458.38 3853.18,1507.42 3776.06,1501.77C3611.82,1489.71 3553,1255 3553,1255C3554.18,1255.94 3504.08,1272.29 3477,1272C3476.65,1340.83 3417.15,1505.25 3256.58,1503.15C3076.39,1500.8 3039.76,1232.35 3039.76,1232.35C3039.76,1232.35 3021.83,1257.25 2953.65,1282.05C2957.08,1229.17 2954.57,1495.1 2738.61,1499.01C2567.88,1502.1 2521.79,1228.2 2521.79,1228.2C2521.79,1228.2 2492.17,1258.98 2434.77,1269.65C2438.42,1215.91 2432.49,1499.91 2216.5,1499.01C2070.54,1498.4 2020.66,1330.29 2024.54,1306.96C2029.49,1277.22 1975.21,1503.19 1833.43,1499.67C1774.92,1497.95 1731.3,1455.6 1703.93,1399.11C1667.29,1441.04 1614.09,1499.67 1554.41,1499.67C1447.29,1499.67 1400.07,1410.07 1408.06,1154.16C1408.74,1123.81 1406.55,1111.87 1376.38,1107.34C1358.27,1104.31 1339.72,1098.59 1320.1,1095.57C1313.81,1116.56 1260.46,1492.84 1077.02,1499.98C1015.48,1502.38 981.83,1449.07 954.195,1409.5C911.833,1465.54 855.913,1501.77 776.25,1501.77C641.307,1501.77 549.366,1392.68 549.366,1258.11C549.366,1123.55 641.307,1014.46 776.25,1014.46C800.109,1014.46 806.807,1017.88 828.604,1024.24C783.778,616.11 889.639,552.325 982.245,552.325C1071.15,552.325 1223.04,758.676 1009.32,1282.09C1056.77,1438.21 1159.06,1429.38 1208.22,1108C1218.22,1042.67 1191.47,954.514 1233.09,942.21C1309.14,919.724 1317.21,987.189 1352.87,998.43C1390.58,1010.31 1412.59,1009.15 1448.8,1016.71C1510.65,1028.79 1534.79,1062.02 1527.25,1136.03C1518.2,1229.68 1502.37,1365.98 1550.64,1382.59C1585.45,1394.66 1649.02,1322.47 1660.16,1282.97C1671.31,1243.47 1673.64,1229.95 1674.63,1200.99C1676.14,1139.06 1678.03,1093.67 1688.59,1046.84C1693.12,1028.72 1698.26,1016.72 1718.76,1015.9C1735.63,1015.47 1766.48,1010.39 1780.06,1020.96C1798.16,1034.56 1795.9,1048.36 1793.82,1084.68C1772.77,1602.52 1934.79,1344.01 1983.1,1137.02C1965.9,902.965 1977.71,556.611 2124.39,550.802C2200.66,547.781 2234.38,608.89 2238.09,654.499C2248.58,783.324 2189.81,996.721 2112.52,1140.23C2068.35,1433.06 2305.66,1490.94 2343.61,1257.22C2281.52,1227.7 2214.42,1108.21 2269.02,1049.98C2299.66,1017.3 2427.2,1064.25 2429.29,1166.64C2491.85,1149.91 2500.2,1114.59 2501.07,1120.44C2483.87,886.385 2499.82,556.611 2646.5,550.802C2722.77,547.781 2756.49,608.89 2760.2,654.499C2770.69,783.324 2711.92,996.721 2634.64,1140.23C2590.46,1433.06 2827.78,1490.94 2865.72,1257.22C2819.75,1248.35 2722.71,1121.26 2778.7,1049.98C2808.62,1011.89 2935.69,1091.11 2949.92,1170.03C3010.02,1153.02 3018.18,1118.82 3019.04,1124.58C3001.84,890.53 3017.79,560.756 3164.47,554.947C3240.74,551.926 3274.46,613.035 3278.17,658.644C3288.66,787.469 3229.89,1000.87 3152.61,1144.38C3108.43,1437.2 3345.74,1495.09 3383.69,1261.36C3320.52,1250.84 3230.74,1116.65 3303,1048C3331.88,1020.57 3442.18,1091.77 3468,1173C3503.88,1171.62 3526.21,1159.25 3531,1158C3473.72,883.233 3516.36,553.552 3674.15,550.802C3759.43,549.316 3842.81,596.908 3806.21,858.313C3771.28,1107.73 3645.71,1212.4 3646,1214C3653.31,1243.88 3717.74,1493.94 3880,1362C3871.6,1342.98 3863.19,1323.55 3858.49,1300.01C3831.6,1162.9 3884.42,1008.03 4028,983C4110.26,968.66 4187.75,1008.71 4200,1099C4220.16,1246.74 4086.75,1353.74 4036.02,1376.95C4013.3,1364.04 4241.99,1510.71 4377.71,1216.78C4385.58,1200 4395.07,1201.42 4407.36,1210.07C4416.04,1216.18 4465.49,1263.02 4442.49,1302.67ZM874.409,1221.81C867.503,1201.16 853.331,1155.67 848.32,1135.96C820.725,1111.96 801.025,1108.06 765.593,1108.06C686.863,1108.06 640.524,1180.85 640.524,1259.35C640.524,1337.84 691.007,1410.63 769.737,1410.63C837.966,1410.63 889.894,1364.24 905.736,1298.57C894.648,1272.97 883.648,1249.44 874.409,1221.81ZM980.316,660.36C924.996,660.36 906.23,792.326 909.872,904.906C913.093,1004.44 940.906,1092.07 955.334,1131.33C958.997,1136.25 958.317,1133.05 961.587,1138.27C1057.64,927.812 1017.8,660.36 980.316,660.36ZM2132.28,664.505C2060.78,656.305 2061.24,954.15 2070.12,1020.96C2107.24,961.555 2171.76,680.498 2132.28,664.505ZM2654.39,664.505C2582.89,656.305 2583.35,954.15 2592.23,1020.96C2629.36,961.555 2693.87,680.498 2654.39,664.505ZM3172.36,668.649C3100.86,660.45 3101.32,958.295 3110.2,1025.11C3147.33,965.7 3211.84,684.643 3172.36,668.649ZM3682.04,647.07C3570.64,669.44 3596.58,1040.86 3613.5,1106C3744.72,925.776 3747.41,640.296 3682.04,647.07ZM4099.53,1111.22C4093.87,1087.54 4065.55,1074.88 4046,1078C3990.07,1085.64 3935.82,1155.3 3956.82,1261.36C3961.49,1284.98 3973.19,1306.72 3973,1306C4098.18,1222.02 4108.82,1155.84 4099.53,1111.22ZM1740.69,933.92C1696.07,933.92 1659.89,897.734 1659.89,853.096C1659.89,808.457 1696.07,772.271 1740.69,772.271C1785.32,772.271 1821.5,808.457 1821.5,853.096C1821.5,897.734 1785.32,933.92 1740.69,933.92Z" style="fill:rgb(63,0,255);"/>
        </g>
    </g>
</svg>
