<?xml version="1.0" encoding="UTF-8" standalone="no"?>
<!DOCTYPE svg PUBLIC "-//W3C//DTD SVG 1.1//EN" "http://www.w3.org/Graphics/SVG/1.1/DTD/svg11.dtd">
<svg width="100%" height="100%" viewBox="0 0 28 28" version="1.1" xmlns="http://www.w3.org/2000/svg" xmlns:xlink="http://www.w3.org/1999/xlink" xml:space="preserve" xmlns:serif="http://www.serif.com/" style="fill-rule:evenodd;clip-rule:evenodd;stroke-linejoin:round;stroke-miterlimit:1.41421;">
    <g transform="matrix(1,0,0,1,-58.5132,0)">
        <g id="ArtBoard1" transform="matrix(0.568336,0,0,1,58.6647,0)">
            <rect x="-0.267" y="0" width="49.267" height="28" style="fill:none;"/>
            <clipPath id="_clip1">
                <rect x="-0.267" y="0" width="49.267" height="28"/>
            </clipPath>
            <g clip-path="url(#_clip1)">
                <g transform="matrix(0.252649,0,0,0.14359,24.3667,14)">
                    <g transform="matrix(1,0,0,1,-97.5,-97.5)">
                        <g id="Monogram">
                            <rect id="Rectangle-path" x="0" y="0" width="195" height="195" style="fill:rgb(18,16,14);"/>
                            <path id="Shape" d="M46.534,65.216C46.697,63.608 46.084,62.018 44.883,60.936L32.651,46.201L32.651,44L70.63,44L99.986,108.381L125.795,44L162,44L162,46.201L151.542,56.228C150.64,56.915 150.193,58.045 150.38,59.163L150.38,132.837C150.193,133.955 150.64,135.085 151.542,135.772L161.755,145.799L161.755,148L110.383,148L110.383,145.799L120.963,135.527C122.003,134.488 122.003,134.182 122.003,132.593L122.003,73.042L92.586,147.755L88.611,147.755L54.362,73.042L54.362,123.116C54.077,125.221 54.776,127.341 56.258,128.863L70.019,145.554L70.019,147.755L31,147.755L31,145.554L44.761,128.863C46.232,127.338 46.89,125.204 46.534,123.116L46.534,65.216Z" style="fill:white;fill-rule:nonzero;"/>
                        </g>
                    </g>
                </g>
            </g>
        </g>
    </g>
</svg>
