<?xml version="1.0" encoding="UTF-8" standalone="no"?><!DOCTYPE svg PUBLIC "-//W3C//DTD SVG 1.1//EN" "http://www.w3.org/Graphics/SVG/1.1/DTD/svg11.dtd"><svg width="100%" height="100%" viewBox="0 0 30 30" version="1.1" xmlns="http://www.w3.org/2000/svg" xmlns:xlink="http://www.w3.org/1999/xlink" xml:space="preserve" style="fill-rule:evenodd;clip-rule:evenodd;stroke-linejoin:round;stroke-miterlimit:1.41421;"><g id="googlePlus"><path id="path6626" d="M29.374,12.468l-4.523,0l0,-4.523c0,-0.345 -0.28,-0.626 -0.625,-0.626l-1.288,0c-0.346,0 -0.626,0.281 -0.626,0.626l0,4.523l-4.524,0c-0.344,0 -0.625,0.281 -0.625,0.626l0,1.289c0,0.345 0.281,0.625 0.625,0.625l4.524,0l0,4.524c0,0.346 0.28,0.626 0.626,0.626l1.288,0c0.345,0 0.625,-0.28 0.625,-0.626l0,-4.524l4.523,0c0.345,0 0.626,-0.28 0.626,-0.625l0,-1.289c0,-0.345 -0.281,-0.626 -0.626,-0.626" style="fill:#fff;fill-rule:nonzero;"/><path id="path6630" d="M6.588,4.643c0.423,-0.483 0.978,-0.739 1.6,-0.739l0.071,0.002c1.759,0.051 3.442,2.011 3.752,4.369c0.173,1.32 -0.12,2.561 -0.784,3.318c-0.424,0.484 -0.971,0.739 -1.619,0.739l-0.001,0l-0.028,0c-1.724,-0.052 -3.442,-2.088 -3.75,-4.442c-0.174,-1.316 0.103,-2.5 0.759,-3.247m-2.466,17.678c0,-1.871 2.378,-3.513 5.087,-3.513l0.073,0.001c0.589,0.007 1.164,0.094 1.707,0.26c0.185,0.128 0.365,0.251 0.537,0.367c1.255,0.855 2.083,1.42 2.315,2.327c0.054,0.227 0.081,0.455 0.081,0.676c0,2.33 -1.738,3.512 -5.165,3.512c-2.599,0 -4.635,-1.595 -4.635,-3.63m10.052,-5.888c-0.952,-0.673 -1.817,-1.662 -1.832,-1.965c0,-0.553 0.049,-0.817 1.288,-1.783c1.604,-1.255 2.487,-2.905 2.487,-4.648c0,-1.581 -0.483,-2.985 -1.306,-3.971l0.638,0c0.132,0 0.261,-0.041 0.367,-0.118l1.78,-1.29c0.221,-0.158 0.313,-0.44 0.228,-0.699c-0.084,-0.257 -0.323,-0.433 -0.594,-0.433l-7.958,0c-0.871,0 -1.755,0.153 -2.624,0.452c-2.9,1 -4.928,3.471 -4.928,6.008c0,3.595 2.785,6.319 6.507,6.404c-0.073,0.285 -0.11,0.566 -0.11,0.841c0,0.554 0.14,1.078 0.429,1.585c-0.033,0.001 -0.066,0.001 -0.102,0.001c-3.548,0 -6.75,1.74 -7.966,4.331c-0.317,0.674 -0.478,1.355 -0.478,2.027c0,0.654 0.168,1.284 0.497,1.875c0.764,1.367 2.405,2.428 4.623,2.988c1.145,0.289 2.375,0.436 3.652,0.436c1.148,0 2.242,-0.149 3.254,-0.441c3.154,-0.916 5.193,-3.237 5.193,-5.918c0,-2.573 -0.826,-4.112 -3.045,-5.682" style="fill:#fff;fill-rule:nonzero;"/></g></svg>