<?xml version="1.0" encoding="UTF-8" standalone="no"?>
<!DOCTYPE svg PUBLIC "-//W3C//DTD SVG 1.1//EN" "http://www.w3.org/Graphics/SVG/1.1/DTD/svg11.dtd">
<svg width="100%" height="100%" viewBox="0 0 125 125" version="1.1" xmlns="http://www.w3.org/2000/svg" xmlns:xlink="http://www.w3.org/1999/xlink" xml:space="preserve" style="fill-rule:evenodd;clip-rule:evenodd;stroke-linejoin:round;stroke-miterlimit:1.41421;">
    <g transform="matrix(4.16667,0,0,4.16667,0,0)">
        <g id="instagram" transform="matrix(0.605132,0,0,-0.605132,-33.0167,207.102)">
            <path d="M99.307,302.247C99.307,299.627 97.176,297.497 94.556,297.497L64.142,297.497C61.522,297.497 59.391,299.627 59.391,302.247L59.391,322.543L66.791,322.543C66.153,320.971 65.793,319.254 65.793,317.454C65.793,309.981 71.873,303.898 79.349,303.898C86.825,303.898 92.905,309.981 92.905,317.454C92.905,319.254 92.543,320.971 91.905,322.543L99.307,322.543L99.307,302.247L99.307,302.247ZM72.274,322.543C73.861,324.74 76.437,326.181 79.349,326.181C82.261,326.181 84.837,324.74 86.424,322.543C87.457,321.108 88.076,319.354 88.076,317.454C88.076,312.644 84.159,308.73 79.349,308.73C74.537,308.73 70.623,312.644 70.623,317.454C70.623,319.354 71.241,321.108 72.274,322.543M97.304,336.528L98.4,336.532L98.4,335.441L98.4,328.13L90.025,328.102L89.996,336.505L97.304,336.528ZM94.556,342.242L64.142,342.242C58.859,342.242 54.561,337.945 54.561,332.662L54.561,322.543L54.561,302.247C54.561,296.964 58.859,292.667 64.142,292.667L94.556,292.667C99.839,292.667 104.137,296.964 104.137,302.247L104.137,332.662C104.137,337.945 99.839,342.242 94.556,342.242" style="fill:white;fill-rule:nonzero;"/>
        </g>
    </g>
</svg>
