<?xml version="1.0" encoding="UTF-8" standalone="no"?><!DOCTYPE svg PUBLIC "-//W3C//DTD SVG 1.1//EN" "http://www.w3.org/Graphics/SVG/1.1/DTD/svg11.dtd"><svg width="100%" height="100%" viewBox="0 0 30 30" version="1.1" xmlns="http://www.w3.org/2000/svg" xmlns:xlink="http://www.w3.org/1999/xlink" xml:space="preserve" style="fill-rule:evenodd;clip-rule:evenodd;stroke-linejoin:round;stroke-miterlimit:1.41421;"><path id="tumblr" d="M16.305,0.004l0,6.936l6.934,0l0,5.354l-6.934,0l0,7.69c0,1.74 -0.022,2.743 0.162,3.236c0.183,0.49 0.642,1 1.143,1.294c0.664,0.398 1.421,0.597 2.275,0.597c1.518,0 3.03,-0.492 4.532,-1.48l0,4.729c-1.281,0.604 -2.442,1.029 -3.481,1.27c-1.04,0.242 -2.163,0.366 -3.371,0.366c-1.371,0 -2.18,-0.174 -3.232,-0.518c-1.054,-0.349 -1.953,-0.844 -2.696,-1.48c-0.747,-0.642 -1.26,-1.324 -1.547,-2.045c-0.289,-0.723 -0.432,-1.77 -0.432,-3.141l0,-10.518l-4.075,0l0,-4.248c1.178,-0.382 2.544,-0.93 3.382,-1.645c0.843,-0.716 1.516,-1.573 2.023,-2.575c0.511,-1 0.862,-2.276 1.052,-3.822l4.265,0Z" style="fill:#fff;fill-rule:nonzero;"/></svg>