<?xml version="1.0" encoding="UTF-8" standalone="no"?><!DOCTYPE svg PUBLIC "-//W3C//DTD SVG 1.1//EN" "http://www.w3.org/Graphics/SVG/1.1/DTD/svg11.dtd"><svg width="100%" height="100%" viewBox="0 0 30 30" version="1.1" xmlns="http://www.w3.org/2000/svg" xmlns:xlink="http://www.w3.org/1999/xlink" xml:space="preserve" style="fill-rule:evenodd;clip-rule:evenodd;stroke-linejoin:round;stroke-miterlimit:1.41421;"><path id="pinterest" d="M15.703,0c-8.187,0 -12.315,5.869 -12.315,10.764c0,2.964 1.122,5.6 3.529,6.583c0.394,0.162 0.748,0.006 0.863,-0.431c0.078,-0.302 0.267,-1.064 0.351,-1.384c0.116,-0.431 0.071,-0.582 -0.248,-0.959c-0.693,-0.818 -1.137,-1.878 -1.137,-3.38c0,-4.354 3.258,-8.252 8.484,-8.252c4.628,0 7.17,2.827 7.17,6.603c0,4.968 -2.199,9.162 -5.463,9.162c-1.803,0 -3.152,-1.491 -2.72,-3.32c0.518,-2.182 1.521,-4.538 1.521,-6.114c0,-1.41 -0.757,-2.587 -2.323,-2.587c-1.843,0 -3.324,1.907 -3.324,4.46c0,1.627 0.55,2.728 0.55,2.728c0,0 -1.886,7.989 -2.217,9.39c-0.658,2.787 -0.099,6.202 -0.052,6.547c0.028,0.205 0.291,0.254 0.41,0.099c0.17,-0.221 2.365,-2.931 3.111,-5.639c0.211,-0.767 1.212,-4.737 1.212,-4.737c0.599,1.143 2.349,2.148 4.21,2.148c5.539,0 9.297,-5.05 9.297,-11.809c0,-5.112 -4.329,-9.872 -10.909,-9.872" style="fill:#fff;fill-rule:nonzero;"/></svg>