<?xml version="1.0" encoding="UTF-8" standalone="no"?><!DOCTYPE svg PUBLIC "-//W3C//DTD SVG 1.1//EN" "http://www.w3.org/Graphics/SVG/1.1/DTD/svg11.dtd"><svg width="100%" height="100%" viewBox="0 0 30 30" version="1.1" xmlns="http://www.w3.org/2000/svg" xmlns:xlink="http://www.w3.org/1999/xlink" xml:space="preserve" style="fill-rule:evenodd;clip-rule:evenodd;stroke-linejoin:round;stroke-miterlimit:1.41421;"><path id="twitter" d="M30,5.695c-1.103,0.491 -2.29,0.821 -3.535,0.969c1.271,-0.761 2.246,-1.967 2.706,-3.404c-1.189,0.705 -2.506,1.217 -3.908,1.493c-1.123,-1.196 -2.722,-1.943 -4.493,-1.943c-3.398,0 -6.155,2.756 -6.155,6.154c0,0.483 0.055,0.952 0.16,1.403c-5.115,-0.256 -9.651,-2.706 -12.686,-6.431c-0.53,0.909 -0.834,1.966 -0.834,3.094c0,2.136 1.087,4.02 2.738,5.124c-1.008,-0.033 -1.958,-0.309 -2.787,-0.771c-0.001,0.026 -0.001,0.052 -0.001,0.078c0,2.982 2.122,5.469 4.938,6.035c-0.517,0.141 -1.06,0.216 -1.622,0.216c-0.397,0 -0.782,-0.038 -1.158,-0.11c0.783,2.445 3.056,4.225 5.749,4.274c-2.106,1.651 -4.76,2.635 -7.644,2.635c-0.497,0 -0.986,-0.029 -1.468,-0.086c2.724,1.747 5.959,2.765 9.435,2.765c11.321,0 17.512,-9.378 17.512,-17.512c0,-0.266 -0.006,-0.532 -0.017,-0.796c1.202,-0.868 2.245,-1.952 3.07,-3.187" style="fill:#fff;fill-rule:nonzero;"/></svg>