<?xml version="1.0" encoding="UTF-8" standalone="no"?><!DOCTYPE svg PUBLIC "-//W3C//DTD SVG 1.1//EN" "http://www.w3.org/Graphics/SVG/1.1/DTD/svg11.dtd"><svg width="100%" height="100%" viewBox="0 0 30 30" version="1.1" xmlns="http://www.w3.org/2000/svg" xmlns:xlink="http://www.w3.org/1999/xlink" xml:space="preserve" style="fill-rule:evenodd;clip-rule:evenodd;stroke-linejoin:round;stroke-miterlimit:1.41421;"><g id="youtube"><path id="path5558" d="M25.25,23.091l-2.902,0l0,1.461c0,0.409 0.048,0.692 0.148,0.851c0.1,0.159 0.272,0.236 0.514,0.236c0.253,0 0.427,-0.067 0.528,-0.201c0.098,-0.135 0.151,-0.429 0.151,-0.886l0,-0.353l1.561,0l0,0.398c0,0.796 -0.189,1.395 -0.573,1.8c-0.377,0.4 -0.945,0.6 -1.702,0.6c-0.68,0 -1.216,-0.213 -1.606,-0.64c-0.389,-0.423 -0.587,-1.011 -0.587,-1.76l0,-3.486c0,-0.67 0.216,-1.222 0.646,-1.646c0.43,-0.423 0.981,-0.634 1.661,-0.634c0.695,0 1.229,0.196 1.602,0.588c0.373,0.393 0.559,0.957 0.559,1.692l0,1.98Zm-5.262,2.091c0,0.548 -0.12,0.97 -0.357,1.264c-0.237,0.293 -0.583,0.438 -1.032,0.438c-0.298,0 -0.563,-0.055 -0.794,-0.168c-0.232,-0.112 -0.45,-0.287 -0.649,-0.526l0,0.594l-1.534,0l0,-10.519l1.534,0l0,3.388c0.206,-0.235 0.424,-0.416 0.65,-0.538c0.232,-0.125 0.465,-0.185 0.702,-0.185c0.48,0 0.845,0.163 1.099,0.494c0.254,0.331 0.381,0.815 0.381,1.451l0,4.307l0,0Zm-5.507,1.602l-1.518,0l0,-0.85c-0.281,0.314 -0.571,0.555 -0.876,0.716c-0.303,0.169 -0.596,0.249 -0.881,0.249c-0.352,0 -0.614,-0.115 -0.793,-0.347c-0.176,-0.232 -0.266,-0.576 -0.266,-1.04l0,-6.489l1.517,0l0,5.955c0,0.183 0.033,0.315 0.093,0.397c0.066,0.085 0.171,0.123 0.313,0.123c0.109,0 0.252,-0.053 0.423,-0.162c0.172,-0.11 0.328,-0.248 0.47,-0.418l0,-5.895l1.518,0l0,7.761l0,0Zm-5.001,-8.989l-1.77,0l0,8.989l-1.71,0l0,-8.989l-1.769,0l0,-1.53l5.249,0l0,1.53Zm15.04,-3.505l-19.04,0c-3.027,0 -5.48,2.51 -5.48,5.602l0,4.502c0,3.093 2.453,5.602 5.48,5.602l19.04,0c3.026,0 5.48,-2.509 5.48,-5.602l0,-4.502c0,-3.092 -2.454,-5.602 -5.48,-5.602" style="fill:#fff;fill-rule:nonzero;"/><path id="path5562" d="M23.024,20.189c-0.242,0 -0.414,0.07 -0.52,0.214c-0.106,0.136 -0.156,0.37 -0.156,0.696l0,0.784l1.341,0l0,-0.784c0,-0.326 -0.054,-0.56 -0.16,-0.696c-0.103,-0.144 -0.274,-0.214 -0.505,-0.214" style="fill:#fff;fill-rule:nonzero;"/><path id="path5566" d="M17.791,20.162c-0.108,0 -0.216,0.024 -0.322,0.075c-0.105,0.05 -0.209,0.132 -0.313,0.237l0,4.835c0.123,0.125 0.243,0.222 0.36,0.277c0.117,0.053 0.237,0.083 0.366,0.083c0.187,0 0.323,-0.055 0.41,-0.166c0.086,-0.11 0.131,-0.286 0.131,-0.534l0,-4.009c0,-0.263 -0.052,-0.461 -0.159,-0.596c-0.111,-0.134 -0.269,-0.202 -0.473,-0.202" style="fill:#fff;fill-rule:nonzero;"/><path id="path5570" d="M7.973,11.594l1.924,0l0,-4.808l2.238,-6.782l-1.955,0l-1.19,4.633l-0.121,0l-1.25,-4.633l-1.937,0l2.291,6.998l0,4.592Z" style="fill:#fff;fill-rule:nonzero;"/><path id="path5574" d="M14.033,4.934c0,-0.186 0.065,-0.336 0.193,-0.453c0.133,-0.115 0.302,-0.171 0.51,-0.171c0.227,0 0.408,0.056 0.548,0.171c0.138,0.117 0.209,0.267 0.209,0.453l0,4.658c0,0.228 -0.069,0.409 -0.206,0.54c-0.136,0.132 -0.32,0.196 -0.551,0.196c-0.226,0 -0.4,-0.062 -0.522,-0.193c-0.12,-0.129 -0.181,-0.308 -0.181,-0.543l0,-4.658Zm0.708,6.876c0.777,0 1.386,-0.208 1.83,-0.625c0.441,-0.418 0.662,-0.989 0.662,-1.72l0,-4.417c0,-0.65 -0.226,-1.187 -0.675,-1.6c-0.452,-0.412 -1.032,-0.619 -1.74,-0.619c-0.775,0 -1.395,0.196 -1.854,0.588c-0.46,0.392 -0.69,0.918 -0.69,1.582l0,4.431c0,0.727 0.225,1.303 0.672,1.734c0.449,0.429 1.048,0.646 1.795,0.646" style="fill:#fff;fill-rule:nonzero;"/><path id="path5578" d="M19.812,11.718c0.321,0 0.651,-0.093 0.991,-0.273c0.343,-0.182 0.671,-0.449 0.984,-0.798l0,0.947l1.708,0l0,-8.549l-1.708,0l0,6.49c-0.159,0.185 -0.335,0.338 -0.526,0.459c-0.193,0.12 -0.352,0.179 -0.478,0.179c-0.16,0 -0.278,-0.044 -0.347,-0.136c-0.071,-0.09 -0.11,-0.236 -0.11,-0.437l0,-6.555l-1.706,0l0,7.145c0,0.51 0.1,0.89 0.299,1.143c0.201,0.256 0.497,0.385 0.893,0.385" style="fill:#fff;fill-rule:nonzero;"/></g></svg>