<?xml version="1.0" encoding="UTF-8" standalone="no"?>
<!DOCTYPE svg PUBLIC "-//W3C//DTD SVG 1.1//EN" "http://www.w3.org/Graphics/SVG/1.1/DTD/svg11.dtd">
<svg width="100%" height="100%" viewBox="0 0 132 132" version="1.1" xmlns="http://www.w3.org/2000/svg" xmlns:xlink="http://www.w3.org/1999/xlink" xml:space="preserve" xmlns:serif="http://www.serif.com/" style="fill-rule:evenodd;clip-rule:evenodd;stroke-linejoin:round;stroke-miterlimit:1.41421;">
    <g id="ArtBoard1" transform="matrix(0.977778,0,0,0.94964,-32.2667,-25.6403)">
        <rect x="33" y="27" width="135" height="139" style="fill:none;"/>
        <g transform="matrix(-0.675,-8.5113e-17,8.26637e-17,-0.695,168,166)">
            <path d="M99.354,199.998L98.708,199.992L98.064,199.982L97.421,199.967L96.778,199.949L96.137,199.927L95.497,199.9L94.857,199.87L94.219,199.835L93.582,199.797L92.946,199.755L92.311,199.708L91.677,199.658L91.044,199.604L90.412,199.545L89.782,199.483L89.152,199.417L88.524,199.347L87.897,199.274L87.271,199.196L86.646,199.114L86.023,199.029L85.401,198.94L84.78,198.847L84.16,198.75L83.541,198.649L82.924,198.545L82.308,198.437L81.693,198.325L81.08,198.209L80.468,198.09L79.857,197.967L79.248,197.84L78.64,197.709L78.033,197.575L77.428,197.437L76.824,197.296L76.221,197.151L75.62,197.002L75.021,196.849L74.423,196.693L73.826,196.534L73.231,196.371L72.637,196.204L72.045,196.033L71.454,195.859L70.865,195.682L70.277,195.501L69.691,195.317L69.106,195.129L68.523,194.937L67.941,194.742L67.361,194.544L66.783,194.342L66.207,194.137L65.631,193.928L65.058,193.716L64.486,193.5L63.916,193.281L63.348,193.059L62.781,192.833L62.216,192.604L61.653,192.372L61.091,192.136L60.531,191.897L59.973,191.655L59.417,191.409L58.862,191.161L58.309,190.908L57.758,190.653L57.209,190.394L56.662,190.133L56.116,189.868L55.573,189.599L55.031,189.328L54.491,189.053L53.953,188.775L53.417,188.494L52.883,188.21L52.35,187.923L51.82,187.633L51.292,187.339L50.765,187.043L50.241,186.743L49.718,186.44L49.198,186.135L48.679,185.826L48.163,185.514L47.648,185.199L47.136,184.881L46.626,184.561L46.117,184.237L45.611,183.91L45.107,183.58L44.605,183.247L44.105,182.912L43.608,182.573L43.112,182.232L42.619,181.887L42.127,181.54L41.638,181.19L41.151,180.837L40.667,180.481L40.184,180.123L39.704,179.761L39.226,179.397L38.75,179.03L38.277,178.66L37.806,178.287L37.337,177.912L36.87,177.534L36.406,177.153L35.944,176.769L35.485,176.383L35.027,175.994L34.572,175.602L34.12,175.208L33.67,174.811L33.222,174.411L32.777,174.009L32.334,173.604L31.894,173.196L31.456,172.786L31.02,172.373L30.587,171.958L30.157,171.54L29.729,171.12L29.303,170.697L28.88,170.271L28.46,169.843L28.042,169.413L27.627,168.98L27.214,168.544L26.804,168.106L26.396,167.666L25.991,167.223L25.589,166.778L25.189,166.33L24.792,165.88L24.398,165.428L24.006,164.973L23.617,164.515L23.231,164.056L22.847,163.594L22.466,163.13L22.088,162.663L21.713,162.194L21.34,161.723L20.97,161.25L20.603,160.774L20.239,160.296L19.877,159.816L19.519,159.333L19.163,158.849L18.81,158.362L18.46,157.873L18.113,157.381L17.768,156.888L17.427,156.392L17.088,155.895L16.753,155.395L16.42,154.893L16.09,154.389L15.763,153.883L15.439,153.374L15.119,152.864L14.801,152.352L14.486,151.837L14.174,151.321L13.865,150.802L13.56,150.282L13.257,149.759L12.957,149.235L12.661,148.708L12.367,148.18L12.077,147.65L11.79,147.117L11.506,146.583L11.225,146.047L10.947,145.509L10.672,144.969L10.401,144.427L10.132,143.884L9.867,143.338L9.606,142.791L9.347,142.242L9.092,141.691L8.839,141.138L8.591,140.583L8.345,140.027L8.103,139.469L7.864,138.909L7.628,138.347L7.396,137.784L7.167,137.219L6.941,136.652L6.719,136.084L6.5,135.514L6.284,134.942L6.072,134.369L5.863,133.793L5.658,133.217L5.456,132.639L5.258,132.059L5.063,131.477L4.871,130.894L4.683,130.309L4.499,129.723L4.318,129.135L4.141,128.546L3.967,127.955L3.796,127.363L3.629,126.769L3.466,126.174L3.307,125.577L3.151,124.979L2.998,124.38L2.849,123.779L2.704,123.176L2.563,122.572L2.425,121.967L2.291,121.36L2.16,120.752L2.033,120.143L1.91,119.532L1.791,118.92L1.675,118.307L1.563,117.692L1.455,117.076L1.351,116.459L1.25,115.84L1.153,115.22L1.06,114.599L0.971,113.977L0.886,113.354L0.804,112.729L0.726,112.103L0.653,111.476L0.583,110.848L0.517,110.218L0.455,109.588L0.396,108.956L0.342,108.323L0.292,107.689L0.245,107.054L0.203,106.418L0.165,105.781L0.13,105.143L0.1,104.503L0.073,103.863L0.051,103.222L0.033,102.579L0.018,101.936L0.008,101.292L0.002,100.646L0,100L0.002,99.354L0.008,98.708L0.018,98.064L0.033,97.421L0.051,96.778L0.073,96.137L0.1,95.497L0.13,94.857L0.165,94.219L0.203,93.582L0.245,92.946L0.292,92.311L0.342,91.677L0.396,91.044L0.455,90.412L0.517,89.782L0.583,89.152L0.653,88.524L0.726,87.897L0.804,87.271L0.886,86.646L0.971,86.023L1.06,85.401L1.153,84.78L1.25,84.16L1.351,83.541L1.455,82.924L1.563,82.308L1.675,81.693L1.791,81.08L1.91,80.468L2.033,79.857L2.16,79.248L2.291,78.64L2.425,78.033L2.563,77.428L2.704,76.824L2.849,76.221L2.998,75.62L3.151,75.021L3.307,74.423L3.466,73.826L3.629,73.231L3.796,72.637L3.967,72.045L4.141,71.454L4.318,70.865L4.499,70.277L4.683,69.691L4.871,69.106L5.063,68.523L5.258,67.941L5.456,67.361L5.658,66.783L5.863,66.207L6.072,65.631L6.284,65.058L6.5,64.486L6.719,63.916L6.941,63.348L7.167,62.781L7.396,62.216L7.628,61.653L7.864,61.091L8.103,60.531L8.345,59.973L8.591,59.417L8.839,58.862L9.092,58.309L9.347,57.758L9.606,57.209L9.867,56.662L10.132,56.116L10.401,55.573L10.672,55.031L10.947,54.491L11.225,53.953L11.506,53.417L11.79,52.883L12.077,52.35L12.367,51.82L12.661,51.292L12.957,50.765L13.257,50.241L13.56,49.718L13.865,49.198L14.174,48.679L14.486,48.163L14.801,47.648L15.119,47.136L15.439,46.626L15.763,46.117L16.09,45.611L16.42,45.107L16.753,44.605L17.088,44.105L17.427,43.608L17.768,43.112L18.113,42.619L18.46,42.127L18.81,41.638L19.163,41.151L19.519,40.667L19.877,40.184L20.239,39.704L20.603,39.226L20.97,38.75L21.34,38.277L21.713,37.806L22.088,37.337L22.466,36.87L22.847,36.406L23.231,35.944L23.617,35.485L24.006,35.027L24.398,34.572L24.792,34.12L25.189,33.67L25.589,33.222L25.991,32.777L26.396,32.334L26.804,31.894L27.214,31.456L27.627,31.02L28.042,30.587L28.46,30.157L28.88,29.729L29.303,29.303L29.729,28.88L30.157,28.46L30.587,28.042L31.02,27.627L31.456,27.214L31.894,26.804L32.334,26.396L32.777,25.991L33.222,25.589L33.67,25.189L34.12,24.792L34.572,24.398L35.027,24.006L35.485,23.617L35.944,23.231L36.406,22.847L36.87,22.466L37.337,22.088L37.806,21.713L38.277,21.34L38.75,20.97L39.226,20.603L39.704,20.239L40.184,19.877L40.667,19.519L41.151,19.163L41.638,18.81L42.127,18.46L42.619,18.113L43.112,17.768L43.608,17.427L44.105,17.088L44.605,16.753L45.107,16.42L45.611,16.09L46.117,15.763L46.626,15.439L47.136,15.119L47.648,14.801L48.163,14.486L48.679,14.174L49.198,13.865L49.718,13.56L50.241,13.257L50.765,12.957L51.292,12.661L51.82,12.367L52.35,12.077L52.883,11.79L53.417,11.506L53.953,11.225L54.491,10.947L55.031,10.672L55.573,10.401L56.116,10.132L56.662,9.867L57.209,9.606L57.758,9.347L58.309,9.092L58.862,8.839L59.417,8.591L59.973,8.345L60.531,8.103L61.091,7.864L61.653,7.628L62.216,7.396L62.781,7.167L63.348,6.941L63.916,6.719L64.486,6.5L65.058,6.284L65.631,6.072L66.207,5.863L66.783,5.658L67.361,5.456L67.941,5.258L68.523,5.063L69.106,4.871L69.691,4.683L70.277,4.499L70.865,4.318L71.454,4.141L72.045,3.967L72.637,3.796L73.231,3.629L73.826,3.466L74.423,3.307L75.021,3.151L75.62,2.998L76.221,2.849L76.824,2.704L77.428,2.563L78.033,2.425L78.64,2.291L79.248,2.16L79.857,2.033L80.468,1.91L81.08,1.791L81.693,1.675L82.308,1.563L82.924,1.455L83.541,1.351L84.16,1.25L84.78,1.153L85.401,1.06L86.023,0.971L86.646,0.886L87.271,0.804L87.897,0.726L88.524,0.653L89.152,0.583L89.782,0.517L90.412,0.455L91.044,0.396L91.677,0.342L92.311,0.292L92.946,0.245L93.582,0.203L94.219,0.165L94.857,0.13L95.497,0.1L96.137,0.073L96.778,0.051L97.421,0.033L98.064,0.018L98.708,0.008L99.354,0.002L100,0L100.646,0.002L101.292,0.008L101.936,0.018L102.579,0.033L103.222,0.051L103.863,0.073L104.503,0.1L105.143,0.13L105.781,0.165L106.418,0.203L107.054,0.245L107.689,0.292L108.323,0.342L108.956,0.396L109.588,0.455L110.218,0.517L110.848,0.583L111.476,0.653L112.103,0.726L112.729,0.804L113.354,0.886L113.977,0.971L114.599,1.06L115.22,1.153L115.84,1.25L116.459,1.351L117.076,1.455L117.692,1.563L118.307,1.675L118.92,1.791L119.532,1.91L120.143,2.033L120.752,2.16L121.36,2.291L121.967,2.425L122.572,2.563L123.176,2.704L123.779,2.849L124.38,2.998L124.979,3.151L125.577,3.307L126.174,3.466L126.769,3.629L127.363,3.796L127.955,3.967L128.546,4.141L129.135,4.318L129.723,4.499L130.309,4.683L130.894,4.871L131.477,5.063L132.059,5.258L132.639,5.456L133.217,5.658L133.793,5.863L134.369,6.072L134.942,6.284L135.514,6.5L136.084,6.719L136.652,6.941L137.219,7.167L137.784,7.396L138.347,7.628L138.909,7.864L139.469,8.103L140.027,8.345L140.583,8.591L141.138,8.839L141.691,9.092L142.242,9.347L142.791,9.606L143.338,9.867L143.884,10.132L144.427,10.401L144.969,10.672L145.509,10.947L146.047,11.225L146.583,11.506L147.117,11.79L147.65,12.077L148.18,12.367L148.708,12.661L149.235,12.957L149.759,13.257L150.282,13.56L150.802,13.865L151.321,14.174L151.837,14.486L152.352,14.801L152.864,15.119L153.374,15.439L153.883,15.763L154.389,16.09L154.893,16.42L155.395,16.753L155.895,17.088L156.392,17.427L156.888,17.768L157.381,18.113L157.873,18.46L158.362,18.81L158.849,19.163L159.333,19.519L159.816,19.877L160.296,20.239L160.774,20.603L161.25,20.97L161.723,21.34L162.194,21.713L162.663,22.088L163.13,22.466L163.594,22.847L164.056,23.231L164.515,23.617L164.973,24.006L165.428,24.398L165.88,24.792L166.33,25.189L166.778,25.589L167.223,25.991L167.666,26.396L168.106,26.804L168.544,27.214L168.98,27.627L169.413,28.042L169.843,28.46L170.271,28.88L170.697,29.303L171.12,29.729L171.54,30.157L171.958,30.587L172.373,31.02L172.786,31.456L173.196,31.894L173.604,32.334L174.009,32.777L174.411,33.222L174.811,33.67L175.208,34.12L175.602,34.572L175.994,35.027L176.383,35.485L176.769,35.944L177.153,36.406L177.534,36.87L177.912,37.337L178.287,37.806L178.66,38.277L179.03,38.75L179.397,39.226L179.761,39.704L180.123,40.184L180.481,40.667L180.837,41.151L181.19,41.638L181.54,42.127L181.887,42.619L182.232,43.112L182.573,43.608L182.912,44.105L183.247,44.605L183.58,45.107L183.91,45.611L184.237,46.117L184.561,46.626L184.881,47.136L185.199,47.648L185.514,48.163L185.826,48.679L186.135,49.198L186.44,49.718L186.743,50.241L187.043,50.765L187.339,51.292L187.633,51.82L187.923,52.35L188.21,52.883L188.494,53.417L188.775,53.953L189.053,54.491L189.328,55.031L189.599,55.573L189.868,56.116L190.133,56.662L190.394,57.209L190.653,57.758L190.908,58.309L191.161,58.862L191.409,59.417L191.655,59.973L191.897,60.531L192.136,61.091L192.372,61.653L192.604,62.216L192.833,62.781L193.059,63.348L193.281,63.916L193.5,64.486L193.716,65.058L193.928,65.631L194.137,66.207L194.342,66.783L194.544,67.361L194.742,67.941L194.937,68.523L195.129,69.106L195.317,69.691L195.501,70.277L195.682,70.865L195.859,71.454L196.033,72.045L196.204,72.637L196.371,73.231L196.534,73.826L196.693,74.423L196.849,75.021L197.002,75.62L197.151,76.221L197.296,76.824L197.437,77.428L197.575,78.033L197.709,78.64L197.84,79.248L197.967,79.857L198.09,80.468L198.209,81.08L198.325,81.693L198.437,82.308L198.545,82.924L198.649,83.541L198.75,84.16L198.847,84.78L198.94,85.401L199.029,86.023L199.114,86.646L199.196,87.271L199.274,87.897L199.347,88.524L199.417,89.152L199.483,89.782L199.545,90.412L199.604,91.044L199.658,91.677L199.708,92.311L199.755,92.946L199.797,93.582L199.835,94.219L199.87,94.857L199.9,95.497L199.927,96.137L199.949,96.778L199.967,97.421L199.982,98.064L199.992,98.708L199.998,99.354L200,100L199.998,100.646L199.992,101.292L199.982,101.936L199.967,102.579L199.949,103.222L199.927,103.863L199.9,104.503L199.87,105.143L199.835,105.781L199.797,106.418L199.755,107.054L199.708,107.689L199.658,108.323L199.604,108.956L199.545,109.588L199.483,110.218L199.417,110.848L199.347,111.476L199.274,112.103L199.196,112.729L199.114,113.354L199.029,113.977L198.94,114.599L198.847,115.22L198.75,115.84L198.649,116.459L198.545,117.076L198.437,117.692L198.325,118.307L198.209,118.92L198.09,119.532L197.967,120.143L197.84,120.752L197.709,121.36L197.575,121.967L197.437,122.572L197.296,123.176L197.151,123.779L197.002,124.38L196.849,124.979L196.693,125.577L196.534,126.174L196.371,126.769L196.204,127.363L196.033,127.955L195.859,128.546L195.682,129.135L195.501,129.723L195.317,130.309L195.129,130.894L194.937,131.477L194.742,132.059L194.544,132.639L194.342,133.217L194.137,133.793L193.928,134.369L193.716,134.942L193.5,135.514L193.281,136.084L193.059,136.652L192.833,137.219L192.604,137.784L192.372,138.347L192.136,138.909L191.897,139.469L191.655,140.027L191.409,140.583L191.161,141.138L190.908,141.691L190.653,142.242L190.394,142.791L190.133,143.338L189.868,143.884L189.599,144.427L189.328,144.969L189.053,145.509L188.775,146.047L188.494,146.583L188.21,147.117L187.923,147.65L187.633,148.18L187.339,148.708L187.043,149.235L186.743,149.759L186.44,150.282L186.135,150.802L185.826,151.321L185.514,151.837L185.199,152.352L184.881,152.864L184.561,153.374L184.237,153.883L183.91,154.389L183.58,154.893L183.247,155.395L182.912,155.895L182.573,156.392L182.232,156.888L181.887,157.381L181.54,157.873L181.19,158.362L180.837,158.849L180.481,159.333L180.123,159.816L179.761,160.296L179.397,160.774L179.03,161.25L178.66,161.723L178.287,162.194L177.912,162.663L177.534,163.13L177.153,163.594L176.769,164.056L176.383,164.515L175.994,164.973L175.602,165.428L175.208,165.88L174.811,166.33L174.411,166.778L174.009,167.223L173.604,167.666L173.196,168.106L172.786,168.544L172.373,168.98L171.958,169.413L171.54,169.843L171.12,170.271L170.697,170.697L170.271,171.12L169.843,171.54L169.413,171.958L168.98,172.373L168.544,172.786L168.106,173.196L167.666,173.604L167.223,174.009L166.778,174.411L166.33,174.811L165.88,175.208L165.428,175.602L164.973,175.994L164.515,176.383L164.056,176.769L163.594,177.153L163.13,177.534L162.663,177.912L162.194,178.287L161.723,178.66L161.25,179.03L160.774,179.397L160.296,179.761L159.816,180.123L159.333,180.481L158.849,180.837L158.362,181.19L157.873,181.54L157.381,181.887L156.888,182.232L156.392,182.573L155.895,182.912L155.395,183.247L154.893,183.58L154.389,183.91L153.883,184.237L153.374,184.561L152.864,184.881L152.352,185.199L151.837,185.514L151.321,185.826L150.802,186.135L150.282,186.44L149.759,186.743L149.235,187.043L148.708,187.339L148.18,187.633L147.65,187.923L147.117,188.21L146.583,188.494L146.047,188.775L145.509,189.053L144.969,189.328L144.427,189.599L143.884,189.868L143.338,190.133L142.791,190.394L142.242,190.653L141.691,190.908L141.138,191.161L140.583,191.409L140.027,191.655L139.469,191.897L138.909,192.136L138.347,192.372L137.784,192.604L137.219,192.833L136.652,193.059L136.084,193.281L135.514,193.5L134.942,193.716L134.369,193.928L133.793,194.137L133.217,194.342L132.639,194.544L132.059,194.742L131.477,194.937L130.894,195.129L130.309,195.317L129.723,195.501L129.135,195.682L128.546,195.859L127.955,196.033L127.363,196.204L126.769,196.371L126.174,196.534L125.577,196.693L124.979,196.849L124.38,197.002L123.779,197.151L123.176,197.296L122.572,197.437L121.967,197.575L121.36,197.709L120.752,197.84L120.143,197.967L119.532,198.09L118.92,198.209L118.307,198.325L117.692,198.437L117.076,198.545L116.459,198.649L115.84,198.75L115.22,198.847L114.599,198.94L113.977,199.029L113.354,199.114L112.729,199.196L112.103,199.274L111.476,199.347L110.848,199.417L110.218,199.483L109.588,199.545L108.956,199.604L108.323,199.658L107.689,199.708L107.054,199.755L106.418,199.797L105.781,199.835L105.143,199.87L104.503,199.9L103.863,199.927L103.222,199.949L102.579,199.967L101.936,199.982L101.292,199.992L100.646,199.998L100,200L99.354,199.998ZM100.473,172.726L100.946,172.721L101.417,172.714L101.888,172.703L102.357,172.69L102.826,172.673L103.293,172.654L103.76,172.632L104.226,172.607L104.691,172.579L105.155,172.548L105.617,172.514L106.079,172.477L106.54,172.438L107,172.396L107.459,172.35L107.917,172.302L108.374,172.251L108.831,172.198L109.286,172.141L109.74,172.082L110.193,172.02L110.645,171.955L111.096,171.888L111.546,171.817L111.996,171.744L112.444,171.668L112.891,171.59L113.337,171.509L113.782,171.425L114.227,171.338L114.67,171.249L115.112,171.157L115.553,171.062L115.993,170.965L116.432,170.865L116.87,170.762L117.307,170.657L117.742,170.549L118.177,170.438L118.611,170.325L119.044,170.21L119.475,170.091L119.906,169.97L120.335,169.847L120.763,169.721L121.191,169.592L121.617,169.461L122.042,169.327L122.465,169.191L122.888,169.052L123.31,168.911L123.73,168.767L124.15,168.62L124.568,168.472L124.985,168.32L125.401,168.166L125.815,168.01L126.229,167.851L126.641,167.69L127.052,167.526L127.462,167.36L127.871,167.192L128.278,167.021L128.685,166.847L129.09,166.671L129.493,166.493L129.896,166.312L130.297,166.129L130.697,165.944L131.096,165.756L131.493,165.566L131.89,165.374L132.284,165.179L132.678,164.982L133.07,164.782L133.461,164.58L133.85,164.376L134.239,164.17L134.626,163.961L135.011,163.75L135.395,163.537L135.778,163.321L136.159,163.103L136.539,162.883L136.918,162.661L137.295,162.436L137.671,162.209L138.045,161.98L138.418,161.749L138.789,161.515L139.159,161.28L139.527,161.042L139.894,160.802L140.26,160.56L140.623,160.315L140.986,160.069L141.347,159.82L141.706,159.57L142.064,159.317L142.42,159.062L142.775,158.804L143.128,158.545L143.479,158.284L143.829,158.021L144.177,157.755L144.524,157.488L144.869,157.218L145.213,156.947L145.554,156.673L145.894,156.397L146.233,156.12L146.569,155.84L146.904,155.558L147.238,155.275L147.569,154.989L147.899,154.702L148.228,154.412L148.554,154.121L148.879,153.827L149.202,153.532L149.523,153.235L149.842,152.936L150.16,152.635L150.476,152.332L150.79,152.027L151.102,151.72L151.412,151.412L151.72,151.102L152.027,150.79L152.332,150.476L152.635,150.16L152.936,149.842L153.235,149.523L153.532,149.202L153.827,148.879L154.121,148.554L154.412,148.228L154.702,147.899L154.989,147.569L155.275,147.238L155.558,146.904L155.84,146.569L156.12,146.233L156.397,145.894L156.673,145.554L156.947,145.213L157.218,144.869L157.488,144.524L157.755,144.177L158.021,143.829L158.284,143.479L158.545,143.128L158.804,142.775L159.062,142.42L159.317,142.064L159.57,141.706L159.82,141.347L160.069,140.986L160.315,140.623L160.56,140.26L160.802,139.894L161.042,139.527L161.28,139.159L161.515,138.789L161.749,138.418L161.98,138.045L162.209,137.671L162.436,137.295L162.661,136.918L162.883,136.539L163.103,136.159L163.321,135.778L163.537,135.395L163.75,135.011L163.961,134.626L164.17,134.239L164.376,133.85L164.58,133.461L164.782,133.07L164.982,132.678L165.179,132.284L165.374,131.89L165.566,131.493L165.756,131.096L165.944,130.697L166.129,130.297L166.312,129.896L166.493,129.493L166.671,129.09L166.847,128.685L167.021,128.278L167.192,127.871L167.36,127.462L167.526,127.052L167.69,126.641L167.851,126.229L168.01,125.815L168.166,125.401L168.32,124.985L168.472,124.568L168.62,124.15L168.767,123.73L168.911,123.31L169.052,122.888L169.191,122.465L169.327,122.042L169.461,121.617L169.592,121.191L169.721,120.763L169.847,120.335L169.97,119.906L170.091,119.475L170.21,119.044L170.325,118.611L170.438,118.177L170.549,117.742L170.657,117.307L170.762,116.87L170.865,116.432L170.965,115.993L171.062,115.553L171.157,115.112L171.249,114.67L171.338,114.227L171.425,113.782L171.509,113.337L171.59,112.891L171.668,112.444L171.744,111.996L171.817,111.546L171.888,111.096L171.955,110.645L172.02,110.193L172.082,109.74L172.141,109.286L172.198,108.831L172.251,108.374L172.302,107.917L172.35,107.459L172.396,107L172.438,106.54L172.477,106.079L172.514,105.617L172.548,105.155L172.579,104.691L172.607,104.226L172.632,103.76L172.654,103.293L172.673,102.826L172.69,102.357L172.703,101.888L172.714,101.417L172.721,100.946L172.726,100.473L172.727,100L172.726,99.527L172.721,99.054L172.714,98.583L172.703,98.112L172.69,97.643L172.673,97.174L172.654,96.707L172.632,96.24L172.607,95.774L172.579,95.309L172.548,94.845L172.514,94.383L172.477,93.921L172.438,93.46L172.396,93L172.35,92.541L172.302,92.083L172.251,91.626L172.198,91.169L172.141,90.714L172.082,90.26L172.02,89.807L171.955,89.355L171.888,88.904L171.817,88.454L171.744,88.004L171.668,87.556L171.59,87.109L171.509,86.663L171.425,86.218L171.338,85.774L171.249,85.33L171.157,84.888L171.062,84.447L170.965,84.007L170.865,83.568L170.762,83.13L170.657,82.693L170.549,82.258L170.438,81.823L170.325,81.389L170.21,80.956L170.091,80.525L169.97,80.094L169.847,79.665L169.721,79.237L169.592,78.81L169.461,78.383L169.327,77.958L169.191,77.535L169.052,77.112L168.911,76.69L168.767,76.27L168.62,75.85L168.472,75.432L168.32,75.015L168.166,74.599L168.01,74.185L167.851,73.771L167.69,73.359L167.526,72.948L167.36,72.538L167.192,72.129L167.021,71.722L166.847,71.315L166.671,70.91L166.493,70.507L166.312,70.104L166.129,69.703L165.944,69.303L165.756,68.904L165.566,68.507L165.374,68.111L165.179,67.716L164.982,67.322L164.782,66.93L164.58,66.539L164.376,66.149L164.17,65.761L163.961,65.374L163.75,64.989L163.537,64.605L163.321,64.222L163.103,63.841L162.883,63.461L162.661,63.082L162.436,62.705L162.209,62.329L161.98,61.955L161.749,61.582L161.515,61.211L161.28,60.841L161.042,60.473L160.802,60.106L160.56,59.74L160.315,59.377L160.069,59.014L159.82,58.653L159.57,58.294L159.317,57.936L159.062,57.58L158.805,57.225L158.545,56.872L158.284,56.521L158.021,56.171L157.755,55.823L157.488,55.476L157.218,55.131L156.947,54.788L156.673,54.446L156.397,54.106L156.12,53.767L155.84,53.431L155.558,53.095L155.275,52.762L154.989,52.431L154.702,52.101L154.412,51.772L154.121,51.446L153.827,51.121L153.532,50.798L153.235,50.477L152.936,50.158L152.635,49.84L152.332,49.525L152.027,49.211L151.72,48.898L151.412,48.588L151.102,48.28L150.789,47.973L150.476,47.668L150.16,47.365L149.842,47.064L149.523,46.765L149.202,46.468L148.879,46.173L148.554,45.879L148.228,45.588L147.899,45.298L147.569,45.011L147.238,44.725L146.904,44.442L146.57,44.16L146.233,43.88L145.894,43.602L145.554,43.327L145.213,43.054L144.869,42.782L144.524,42.512L144.178,42.245L143.829,41.979L143.479,41.716L143.128,41.455L142.775,41.196L142.42,40.938L142.064,40.683L141.706,40.43L141.347,40.18L140.986,39.931L140.623,39.684L140.259,39.44L139.894,39.198L139.527,38.958L139.159,38.72L138.789,38.485L138.418,38.251L138.045,38.02L137.671,37.791L137.295,37.564L136.918,37.339L136.539,37.117L136.159,36.897L135.778,36.679L135.395,36.463L135.011,36.25L134.626,36.039L134.239,35.83L133.851,35.624L133.461,35.42L133.07,35.218L132.678,35.018L132.284,34.821L131.889,34.626L131.493,34.434L131.096,34.244L130.697,34.056L130.297,33.87L129.896,33.688L129.494,33.507L129.09,33.329L128.684,33.153L128.278,32.979L127.871,32.808L127.462,32.64L127.052,32.474L126.641,32.31L126.229,32.149L125.815,31.99L125.401,31.834L124.985,31.68L124.568,31.528L124.15,31.38L123.73,31.233L123.31,31.089L122.888,30.948L122.465,30.809L122.041,30.673L121.617,30.539L121.191,30.408L120.763,30.279L120.335,30.153L119.906,30.03L119.475,29.909L119.044,29.79L118.611,29.675L118.177,29.561L117.743,29.451L117.307,29.343L116.87,29.238L116.432,29.135L115.993,29.035L115.553,28.938L115.112,28.843L114.67,28.751L114.226,28.662L113.782,28.575L113.337,28.491L112.891,28.41L112.444,28.332L111.996,28.256L111.546,28.183L111.096,28.112L110.645,28.045L110.193,27.98L109.74,27.918L109.286,27.859L108.83,27.802L108.374,27.749L107.917,27.698L107.459,27.65L107,27.604L106.54,27.562L106.079,27.523L105.617,27.486L105.155,27.452L104.691,27.421L104.226,27.393L103.76,27.368L103.294,27.346L102.826,27.327L102.357,27.31L101.888,27.297L101.417,27.286L100.946,27.279L100.473,27.274L100,27.273L99.527,27.274L99.054,27.279L98.583,27.286L98.112,27.297L97.643,27.31L97.174,27.327L96.706,27.346L96.24,27.368L95.774,27.393L95.309,27.421L94.845,27.452L94.383,27.486L93.921,27.523L93.46,27.562L93,27.604L92.541,27.65L92.083,27.698L91.626,27.749L91.17,27.802L90.714,27.859L90.26,27.918L89.807,27.98L89.355,28.045L88.904,28.112L88.454,28.183L88.004,28.256L87.556,28.332L87.109,28.41L86.663,28.491L86.218,28.575L85.774,28.662L85.33,28.751L84.888,28.843L84.447,28.938L84.007,29.035L83.568,29.135L83.13,29.238L82.693,29.343L82.257,29.451L81.823,29.562L81.389,29.675L80.956,29.79L80.525,29.909L80.094,30.03L79.665,30.153L79.237,30.279L78.809,30.408L78.383,30.539L77.959,30.673L77.535,30.809L77.112,30.948L76.69,31.089L76.27,31.233L75.85,31.38L75.433,31.528L75.015,31.68L74.599,31.834L74.185,31.99L73.771,32.149L73.359,32.31L72.948,32.474L72.538,32.64L72.129,32.808L71.722,32.979L71.316,33.153L70.91,33.329L70.506,33.507L70.104,33.688L69.703,33.87L69.303,34.056L68.904,34.244L68.507,34.434L68.111,34.626L67.716,34.821L67.322,35.018L66.93,35.218L66.539,35.42L66.149,35.624L65.761,35.83L65.374,36.039L64.989,36.25L64.605,36.463L64.222,36.679L63.841,36.897L63.461,37.117L63.082,37.339L62.705,37.564L62.329,37.791L61.955,38.02L61.582,38.251L61.211,38.485L60.841,38.72L60.473,38.958L60.106,39.198L59.741,39.44L59.377,39.684L59.014,39.931L58.653,40.18L58.294,40.43L57.936,40.683L57.58,40.938L57.225,41.196L56.872,41.455L56.521,41.716L56.171,41.979L55.823,42.245L55.476,42.512L55.131,42.782L54.788,43.053L54.446,43.327L54.106,43.603L53.767,43.88L53.43,44.16L53.095,44.442L52.762,44.725L52.431,45.011L52.101,45.298L51.772,45.588L51.446,45.879L51.121,46.173L50.798,46.468L50.477,46.765L50.158,47.064L49.84,47.365L49.524,47.668L49.211,47.973L48.898,48.28L48.588,48.588L48.28,48.898L47.973,49.211L47.668,49.524L47.365,49.84L47.064,50.158L46.765,50.477L46.468,50.798L46.173,51.121L45.879,51.446L45.588,51.772L45.298,52.101L45.011,52.431L44.725,52.762L44.442,53.095L44.16,53.43L43.88,53.767L43.603,54.106L43.327,54.446L43.053,54.788L42.782,55.131L42.512,55.476L42.245,55.823L41.979,56.171L41.716,56.521L41.455,56.872L41.196,57.225L40.938,57.58L40.683,57.936L40.43,58.294L40.18,58.653L39.931,59.014L39.684,59.377L39.44,59.741L39.198,60.106L38.958,60.473L38.72,60.841L38.485,61.211L38.251,61.582L38.02,61.955L37.791,62.329L37.564,62.705L37.339,63.082L37.117,63.461L36.897,63.841L36.679,64.222L36.463,64.605L36.25,64.989L36.039,65.374L35.83,65.761L35.624,66.149L35.42,66.539L35.218,66.93L35.018,67.322L34.821,67.716L34.626,68.111L34.434,68.507L34.244,68.904L34.056,69.303L33.87,69.703L33.688,70.104L33.507,70.506L33.329,70.91L33.153,71.316L32.979,71.722L32.808,72.129L32.64,72.538L32.474,72.948L32.31,73.359L32.149,73.771L31.99,74.185L31.834,74.599L31.68,75.015L31.528,75.433L31.38,75.85L31.233,76.27L31.089,76.69L30.948,77.112L30.809,77.535L30.673,77.959L30.539,78.383L30.408,78.809L30.279,79.237L30.153,79.665L30.03,80.094L29.909,80.525L29.79,80.956L29.675,81.389L29.562,81.823L29.451,82.257L29.343,82.693L29.238,83.13L29.135,83.568L29.035,84.007L28.938,84.447L28.843,84.888L28.751,85.33L28.662,85.774L28.575,86.218L28.491,86.663L28.41,87.109L28.332,87.556L28.256,88.004L28.183,88.454L28.112,88.904L28.045,89.355L27.98,89.807L27.918,90.26L27.859,90.714L27.802,91.17L27.749,91.626L27.698,92.083L27.65,92.541L27.604,93L27.562,93.46L27.523,93.921L27.486,94.383L27.452,94.845L27.421,95.309L27.393,95.774L27.368,96.24L27.346,96.706L27.327,97.174L27.31,97.643L27.297,98.112L27.286,98.583L27.279,99.054L27.274,99.527L27.273,100L27.274,100.473L27.279,100.946L27.286,101.417L27.297,101.888L27.31,102.357L27.327,102.826L27.346,103.294L27.368,103.76L27.393,104.226L27.421,104.691L27.452,105.155L27.486,105.617L27.523,106.079L27.562,106.54L27.604,107L27.65,107.459L27.698,107.917L27.749,108.374L27.802,108.83L27.859,109.286L27.918,109.74L27.98,110.193L28.045,110.645L28.112,111.096L28.183,111.546L28.256,111.996L28.332,112.444L28.41,112.891L28.491,113.337L28.575,113.782L28.662,114.226L28.751,114.67L28.843,115.112L28.938,115.553L29.035,115.993L29.135,116.432L29.238,116.87L29.343,117.307L29.451,117.743L29.561,118.177L29.675,118.611L29.79,119.044L29.909,119.475L30.03,119.906L30.153,120.335L30.279,120.763L30.408,121.191L30.539,121.617L30.673,122.041L30.809,122.465L30.948,122.888L31.089,123.31L31.233,123.73L31.38,124.15L31.528,124.568L31.68,124.985L31.834,125.401L31.99,125.815L32.149,126.229L32.31,126.641L32.474,127.052L32.64,127.462L32.808,127.871L32.979,128.278L33.153,128.684L33.329,129.09L33.507,129.494L33.688,129.896L33.87,130.297L34.056,130.697L34.244,131.096L34.434,131.493L34.626,131.889L34.821,132.284L35.018,132.678L35.218,133.07L35.42,133.461L35.624,133.851L35.83,134.239L36.039,134.626L36.25,135.011L36.463,135.395L36.679,135.778L36.897,136.159L37.117,136.539L37.339,136.918L37.564,137.295L37.791,137.671L38.02,138.045L38.251,138.418L38.485,138.789L38.72,139.159L38.958,139.527L39.198,139.894L39.44,140.259L39.684,140.623L39.931,140.986L40.18,141.347L40.43,141.706L40.683,142.064L40.938,142.42L41.196,142.775L41.455,143.128L41.716,143.479L41.979,143.829L42.245,144.178L42.512,144.524L42.782,144.869L43.054,145.213L43.327,145.554L43.602,145.894L43.88,146.233L44.16,146.57L44.442,146.904L44.725,147.238L45.011,147.569L45.298,147.899L45.588,148.228L45.879,148.554L46.173,148.879L46.468,149.202L46.765,149.523L47.064,149.842L47.365,150.16L47.668,150.476L47.973,150.789L48.28,151.102L48.588,151.412L48.898,151.72L49.211,152.027L49.525,152.332L49.84,152.635L50.158,152.936L50.477,153.235L50.798,153.532L51.121,153.827L51.446,154.121L51.772,154.412L52.101,154.702L52.431,154.989L52.762,155.275L53.095,155.558L53.431,155.84L53.767,156.12L54.106,156.397L54.446,156.673L54.788,156.947L55.131,157.218L55.476,157.488L55.823,157.755L56.171,158.021L56.521,158.284L56.872,158.545L57.225,158.805L57.58,159.062L57.936,159.317L58.294,159.57L58.653,159.82L59.014,160.069L59.377,160.315L59.74,160.56L60.106,160.802L60.473,161.042L60.841,161.28L61.211,161.515L61.582,161.749L61.955,161.98L62.329,162.209L62.705,162.436L63.082,162.661L63.461,162.883L63.841,163.103L64.222,163.321L64.605,163.537L64.989,163.75L65.374,163.961L65.761,164.17L66.149,164.376L66.539,164.58L66.93,164.782L67.322,164.982L67.716,165.179L68.111,165.374L68.507,165.566L68.904,165.756L69.303,165.944L69.703,166.129L70.104,166.312L70.507,166.493L70.91,166.671L71.315,166.847L71.722,167.021L72.129,167.192L72.538,167.36L72.948,167.526L73.359,167.69L73.771,167.851L74.185,168.01L74.599,168.166L75.015,168.32L75.432,168.472L75.85,168.62L76.27,168.767L76.69,168.911L77.112,169.052L77.535,169.191L77.958,169.327L78.383,169.461L78.81,169.592L79.237,169.721L79.665,169.847L80.094,169.97L80.525,170.091L80.956,170.21L81.389,170.325L81.823,170.438L82.258,170.549L82.693,170.657L83.13,170.762L83.568,170.865L84.007,170.965L84.447,171.062L84.888,171.157L85.33,171.249L85.774,171.338L86.218,171.425L86.663,171.509L87.109,171.59L87.556,171.668L88.004,171.744L88.454,171.817L88.904,171.888L89.355,171.955L89.807,172.02L90.26,172.082L90.714,172.141L91.169,172.198L91.626,172.251L92.083,172.302L92.541,172.35L93,172.396L93.46,172.438L93.921,172.477L94.383,172.514L94.845,172.548L95.309,172.579L95.774,172.607L96.24,172.632L96.707,172.654L97.174,172.673L97.643,172.69L98.112,172.703L98.583,172.714L99.054,172.721L99.527,172.726L100,172.727L100.473,172.726Z" style="fill:rgb(63,0,255);"/>
        </g>
        <g transform="matrix(-0.723177,0.744605,-0.723177,-0.744605,195.973,96.5137)">
            <path d="M132,66L0,66C0,29.574 29.574,0 66,0C102.426,0 132,29.573 132,66Z" style="fill:rgb(63,0,255);"/>
        </g>
    </g>
</svg>
