<?xml version="1.0" encoding="UTF-8" standalone="no"?>
<!DOCTYPE svg PUBLIC "-//W3C//DTD SVG 1.1//EN" "http://www.w3.org/Graphics/SVG/1.1/DTD/svg11.dtd">
<svg width="100%" height="100%" viewBox="0 0 280 250" version="1.1" xmlns="http://www.w3.org/2000/svg" xmlns:xlink="http://www.w3.org/1999/xlink" xml:space="preserve" xmlns:serif="http://www.serif.com/" style="fill-rule:evenodd;clip-rule:evenodd;stroke-linecap:round;stroke-linejoin:round;stroke-miterlimit:1.5;">
    <g id="ArtBoard1" transform="matrix(0.875,0,0,0.912409,-130.375,-142.336)">
        <rect x="149" y="156" width="320" height="274" style="fill:none;"/>
        <g transform="matrix(1.43419,-0.794079,0.571429,0.949164,-271.296,324.255)">
            <path d="M404.874,259C404.874,245.754 397.453,235 388.312,235L228.563,235C219.421,235 212,245.754 212,259C212,272.246 219.421,283 228.563,283L388.312,283C397.453,283 404.874,272.246 404.874,259Z" style="fill:rgb(63,0,255);"/>
        </g>
        <g transform="matrix(1.19672,-0.662601,0.545826,0.906637,-233.274,240.821)">
            <path d="M404.874,259C404.874,245.754 396.379,235 385.914,235L230.96,235C220.496,235 212,245.754 212,259C212,272.246 220.496,283 230.96,283L385.914,283C396.379,283 404.874,272.246 404.874,259Z" style="fill:rgb(63,0,255);"/>
        </g>
        <g transform="matrix(1.14286,0,0,1.096,-51,-36.896)">
            <path d="M305.949,318.194L297,292.881L278.827,290.902L263,290.902C254.894,301.13 251.676,311.135 251.522,321L249.953,339.475L263,347.866L302,343L305.949,318.194Z" style="fill:white;"/>
        </g>
        <g transform="matrix(1.14286,0,0,1.096,-51,-36.896)">
            <path d="M287.013,277C287.013,277 316.965,290.899 322.409,256.707C327.019,227.752 318,219 318,219L266,220C266,220 264.22,226.468 263.391,235.212C263.075,238.546 252.794,227.503 250.008,237.973C247.039,249.133 263.657,254.838 264.803,259.106C267.611,269.57 264.867,281.291 263,291C263,291 277.808,299.563 297,293C294.225,288.186 293.756,279.105 293.756,279.105" style="fill:white;stroke:black;stroke-width:2px;"/>
        </g>
        <g transform="matrix(1.14286,0,0,1.096,-51,-36.896)">
            <path d="M263,291C263,291 238.263,289.433 230.643,298.857C223.022,308.281 218,337 218,337L249.654,343L251.522,321" style="fill:white;stroke:black;stroke-width:2px;"/>
        </g>
        <g transform="matrix(1.14286,0,0,1.096,-51,-36.896)">
            <path d="M297,293C299.334,292.105 321.811,296.244 323.785,305.916C325.715,315.368 329,339 329,339L310.181,343" style="fill:white;stroke:black;stroke-width:2px;"/>
        </g>
        <g transform="matrix(1.14286,0,0,1.096,-51,-36.896)">
            <path d="M305.949,318.194C310.742,354.298 313.06,367.046 313,387L244.654,386L246,343L249.736,342.363" style="fill:white;stroke:black;stroke-width:2px;"/>
        </g>
        <g transform="matrix(1.14286,0,0,1.096,-51,-36.896)">
            <path d="M267,205C267,205 262.587,183.946 251.913,190.461C241.238,196.976 241.109,208.381 256.328,212.839C271.547,217.296 267,205 267,205Z" style="fill:white;stroke:black;stroke-width:2px;"/>
        </g>
        <g transform="matrix(1.14286,0,0,1.096,-47.5714,-32.0208)">
            <path d="M297,199C277.61,194.36 277.127,219.786 277.127,219.786C277.127,219.786 282.313,228.73 300.893,223.984C319.474,219.239 324.603,205.606 297,199Z" style="fill:rgb(212,212,212);"/>
        </g>
        <g transform="matrix(1.14286,0,0,1.096,-51,-36.896)">
            <path d="M261.883,235.852C261.883,235.852 270.718,245.413 277,238C283.282,230.587 277.127,219.786 277.127,219.786C277.127,219.786 282.313,228.73 300.893,223.984C319.474,219.239 318.316,221.521 321.057,224.134C321.436,219.471 316.39,203.64 297,199C277.61,194.36 256.279,196.958 252.654,219C250.428,232.529 252.173,233.614 252.173,233.614C256.829,232.605 259.799,234.598 261.883,235.852Z" style="fill:white;stroke:black;stroke-width:2px;"/>
        </g>
        <g transform="matrix(1.14286,0,0,1.096,-51,-36.896)">
            <path d="M277.127,219.786C277.127,219.786 261.456,212.134 254,216" style="fill:none;stroke:black;stroke-width:2px;"/>
        </g>
        <g transform="matrix(1.14286,0,0,1.096,-51,-36.896)">
            <path d="M308,212C308,212 299.553,200.893 290.87,200.595" style="fill:none;stroke:black;stroke-width:2px;"/>
        </g>
        <g transform="matrix(1.14286,0,0,1.096,-53.2857,-40.184)">
            <path d="M311,250.134L313,267L307,266" style="fill:none;stroke:black;stroke-width:2px;"/>
        </g>
        <g transform="matrix(0.502857,0,0,0.448047,180.467,139.158)">
            <path d="M192.951,189.939C194.831,182.346 199.296,177 204.5,177C211.399,177 217,186.395 217,197.968C217,209.54 211.399,218.935 204.5,218.935C199.296,218.935 194.831,213.59 192.951,205.996L209.134,197.968L192.951,189.939ZM192,197.968C192,197.968 192,197.968 192,197.968Z"/>
        </g>
        <g transform="matrix(0.32,0,0,0.448047,242.989,138.313)">
            <path d="M192.951,189.939C194.831,182.346 199.296,177 204.5,177C211.399,177 217,186.395 217,197.968C217,209.54 211.399,218.935 204.5,218.935C199.296,218.935 194.831,213.59 192.951,205.996L209.134,197.968L192.951,189.939ZM192,197.968C192,197.968 192,197.968 192,197.968Z"/>
        </g>
        <g transform="matrix(1.14286,0,0,1.096,-51,-36.896)">
            <path d="M328.307,339.163L329,362.636L350,374L337,387L313,384.407C313.483,371.03 312.318,357.161 310.181,343L328.307,339.163Z" style="fill:white;stroke:black;stroke-width:2px;"/>
        </g>
        <g transform="matrix(1.14286,0,0,1.096,-51,-36.896)">
            <path d="M295.609,292.493C295.609,292.493 292.922,286.842 292.944,279.96C290.191,279.4 286.772,278.093 286.772,278.093C286.772,278.093 290.41,294.239 275.839,294.094C283.763,294.714 286.695,294.949 295.609,292.493Z" style="fill:rgb(212,212,212);"/>
        </g>
        <g transform="matrix(1.14286,0,0,1.096,-51,-36.896)">
            <circle cx="263" cy="228" r="1"/>
        </g>
        <g transform="matrix(1.14286,0,0,1.096,-42.2967,-37.5147)">
            <circle cx="263" cy="228" r="1"/>
        </g>
        <g transform="matrix(1.14286,0,0,1.096,-50.5692,-43.7859)">
            <circle cx="263" cy="228" r="1"/>
        </g>
        <g transform="matrix(1.14286,0,0,1.096,-56.6565,-40.9402)">
            <circle cx="263" cy="228" r="1"/>
        </g>
        <g transform="matrix(1.14286,0,0,1.096,-43.5138,-30.4575)">
            <circle cx="263" cy="228" r="1"/>
        </g>
        <g transform="matrix(1.14286,0,0,1.096,-51,-36.896)">
            <path d="M304.979,318.837C308.134,338.773 312.588,372.534 311.086,381.062L250,380.747C250,380.747 310.628,364.951 304.979,318.837Z" style="fill:rgb(212,212,212);"/>
        </g>
        <g transform="matrix(1.40931,0,0,1.096,-137.648,-35.8)">
            <path d="M214,387L408,387" style="fill:none;stroke:black;stroke-width:3.56px;"/>
        </g>
        <g transform="matrix(0.0425945,0,0,1.096,439.99,-35.8)">
            <path d="M410.031,385.001C461.297,385.11 485.765,388.838 410.031,388.999C344.699,389.045 279.344,389 214,389C159.564,388.962 144.153,385.145 211.97,385.001C277.978,384.955 344.022,384.955 410.031,385.001Z" style="fill-rule:nonzero;"/>
        </g>
        <g transform="matrix(1.14286,0,0,0.913333,-94.6253,33.796)">
            <path d="M396,381C396,381 332.229,381 319.278,381C318.674,381 318.094,381.288 317.667,381.801C317.24,382.313 317,383.009 317,383.734C317,383.891 317,384.05 317,384.208C317,385.75 318.042,387 319.326,387C332.386,387 396,387 396,387L396,381Z" style="fill:white;stroke:black;stroke-width:2.17px;"/>
        </g>
        <g transform="matrix(1.14286,0,0,0.913333,-38.0778,33.796)">
            <path d="M396,382.603C396,382.178 395.859,381.77 395.609,381.47C395.358,381.169 395.018,381 394.664,381C385.639,381 333.542,381 320.142,381C318.407,381 317,382.688 317,384.77C317,384.771 317,384.772 317,384.773C317,385.363 317.196,385.93 317.544,386.348C317.892,386.765 318.364,387 318.856,387C329.064,387 378.418,387 392.338,387C394.36,387 396,385.033 396,382.606C396,382.605 396,382.604 396,382.603Z" style="fill:white;stroke:black;stroke-width:2.17px;"/>
        </g>
        <g transform="matrix(1.14286,0,0,7.672,-38.0778,-2587.29)">
            <path d="M414.538,379.055C414.877,378.91 414.706,378.75 414.08,378.626C413.454,378.502 412.448,378.429 411.377,378.429C397.199,378.429 354.485,378.429 341.074,378.429C338.641,378.429 336.481,378.651 335.712,378.981C332.171,380.498 322.306,384.726 318.513,386.352C318.162,386.502 318.339,386.667 318.987,386.795C319.635,386.924 320.676,387 321.784,387C336.769,387 382.461,387 393.554,387C395.015,387 396.312,386.866 396.773,386.669C399.762,385.388 410.581,380.751 414.538,379.055Z" style="fill:white;"/>
        </g>
        <g transform="matrix(1.14286,0,0,7.672,-38.0778,-2587.29)">
            <path d="M411.442,378.286C414.099,378.294 416.308,378.689 415.527,379.082C409.987,381.648 403.818,384.187 397.693,386.726C397.078,386.965 395.431,387.135 393.642,387.143C369.646,387.177 345.642,387.22 321.65,387.143C318.923,387.128 316.702,386.705 317.543,386.316C323.156,383.849 329.024,381.395 334.764,378.935C335.658,378.565 338.139,378.298 340.941,378.286C364.44,378.252 387.942,378.261 411.442,378.286ZM341.079,378.571C339.152,378.574 337.356,378.754 336.691,379.013C330.764,381.471 324.534,383.917 319.429,386.412C319.036,386.615 320.156,386.849 321.71,386.857C345.684,386.934 369.681,386.96 393.651,386.857C394.588,386.85 395.45,386.762 395.792,386.636C402.258,384.118 408.075,381.565 413.609,379.001C414.003,378.803 412.915,378.581 411.443,378.572C387.994,378.496 364.534,378.571 341.079,378.571Z" style="fill-rule:nonzero;"/>
        </g>
        <g transform="matrix(1.14286,0,0,7.672,-38.0778,-2587.29)">
            <path d="M393.554,386.838C394.292,386.838 363.718,387.012 349.016,384.946C334.616,382.922 337.148,378.828 336.768,378.992C333.227,380.509 323.935,384.535 320.141,386.16C319.791,386.31 319.026,386.541 319.674,386.67C320.322,386.798 321.551,386.846 322.659,386.846C337.644,386.846 382.461,386.838 393.554,386.838Z" style="fill:rgb(212,212,212);"/>
        </g>
        <g transform="matrix(1.14286,0,0,1.096,-51,-36.896)">
            <path d="M244.654,342.052L240.5,369L288,374C288,374 316.334,374.019 315,387C305.431,388.534 221,387 221,387C221,387 214.71,381.558 218,364.256C220.564,350.775 221.114,337.59 221.114,337.59L244.654,342.052Z" style="fill:white;stroke:black;stroke-width:2px;"/>
        </g>
        <g transform="matrix(0.714023,0.185028,-0.241338,0.856519,200.746,-23.0504)">
            <circle cx="378.307" cy="353.5" r="10.5"/>
        </g>
        <g transform="matrix(1.14185,-0.046065,0.0480344,1.09503,-3.21677,2.95459)">
            <path d="M214.653,314.451L211.393,314.451L207.965,305.398L206.389,314.451L203.02,314.451L205.502,300.108L208.792,300.108L212.21,309.161L213.777,300.108L217.145,300.108L214.653,314.451Z" style="fill-rule:nonzero;"/>
            <path d="M222.622,309.151L220.869,310.796L220.229,314.451L216.86,314.451L219.342,300.108L222.721,300.108L221.647,306.245L223.046,304.541L226.769,300.108L231.143,300.108L225.193,306.6L228.493,314.451L224.642,314.451L222.622,309.151Z" style="fill-rule:nonzero;"/>
            <path d="M233.074,314.451L229.705,314.451L232.197,300.108L235.556,300.108L233.074,314.451Z" style="fill-rule:nonzero;"/>
            <path d="M245.18,308.373L239.91,308.373L239.309,311.791L245.545,311.791L245.082,314.451L235.477,314.451L237.96,300.108L247.584,300.108L247.121,302.778L240.875,302.778L240.343,305.802L245.623,305.802L245.18,308.373Z" style="fill-rule:nonzero;"/>
        </g>
        <g transform="matrix(1.14286,0,0,1.096,-51,-36.896)">
            <path d="M243.395,342.892L222.415,338.8C222.415,338.8 240.087,354.733 239.472,368.449C240.921,359.312 243.395,342.892 243.395,342.892Z" style="fill:rgb(212,212,212);"/>
        </g>
        <g transform="matrix(1.55834,0,0,1.31414,-149.943,-112.812)">
            <path d="M229,359L229,363.082L235,363.082L235,359C235,359 241.208,353.657 236.167,350.246C231.127,346.834 229.194,347.618 227.751,350.627C225.841,354.61 229,359 229,359Z"/>
        </g>
        <g transform="matrix(0.935791,0,0,0.897423,-2.53041,32.3997)">
            <circle cx="225.897" cy="357.24" r="2.76" style="fill:white;"/>
        </g>
        <g transform="matrix(0.728724,0,0,0.698846,51.4202,103.887)">
            <circle cx="225.897" cy="357.24" r="2.76" style="fill:white;"/>
        </g>
        <g transform="matrix(1.14286,0,0,1.096,-51,-36.896)">
            <path d="M311.574,344.062C311.574,344.062 313.045,356.245 313.501,362.357C314.287,372.916 314.129,380.707 314.129,380.707L329.238,380.747C329.238,380.747 316.266,373.872 316.77,363.065C317.275,352.259 327.584,340.383 327.584,340.383L311.574,344.062Z" style="fill:rgb(212,212,212);"/>
        </g>
    </g>
</svg>
