<?xml version="1.0" encoding="utf-8"?>
<!-- Generator: Adobe Illustrator 22.1.0, SVG Export Plug-In . SVG Version: 6.00 Build 0)  -->
<svg version="1.1" id="Layer_1" xmlns="http://www.w3.org/2000/svg" xmlns:xlink="http://www.w3.org/1999/xlink" x="0px" y="0px"
	 viewBox="0 0 512 512" style="enable-background:new 0 0 512 512;" xml:space="preserve">
<g>
	<title>indeed</title>
	<g>
		<path d="M345.8,224.3c-45,23.1-95.3-19.9-79.6-68c15.7-48,81.7-53,104.4-7.8C384.7,176.3,373.7,210.3,345.8,224.3L345.8,224.3z
			 M285.5,41.7c46.3-16.8,99.2-16,138.9,18.5c8.3,6.9,14.9,15.7,19.2,25.7c4,12.9-14.1-1.3-16.5-3.1c-12.5-8.6-26.1-15.5-40.3-20.6
			c-78.1-23.9-151.9,19.6-197.5,87.3c-18.6,29.8-32.8,62.2-42.2,96.1c-0.9,4.2-2.2,8.2-4,12.1c-2,3.8-1-10.3-1-10.8
			c1.7-14.1,4.4-28.2,8.1-42C171.3,131.1,218.2,69.7,285.5,41.7L285.5,41.7z M286.1,435.3V271c4.7,0.5,9.1,0.7,13.8,0.7
			c21.3,0.1,42.2-5.8,60.4-16.8v180.3c0,15.5-2.9,26.8-9.8,34.3c-7,7.6-16.8,11.8-27.2,11.4c-10.2,0.4-20-3.8-26.8-11.4
			C289.6,462,286,450.6,286.1,435.3L286.1,435.3z"/>
	</g>
</g>
</svg>
