<svg id="Ebene_1" data-name="Ebene 1" xmlns="http://www.w3.org/2000/svg" viewBox="0 0 752.09 431.56"><defs><style>.cls-1,.cls-3{fill:#fff;}.cls-1,.cls-2{fill-rule:evenodd;}</style></defs><path class="cls-1" d="M171.77-55c6.07-4,12.74-7.22,19.68-8.28,19.42-2.95,42.34,11.14,52.2,27.92a30,30,0,0,1,14-4.58c37.62-3.35,62.24,14,68,46.65,39.08-11,80.62-21.8,120.49-24.22,38.2-2.32,70.12,19.32,71.2,59.4.37,13.28-.48,29.45-9.47,40.09-1,1.22-2.11,2.4-3.21,3.55,12.17,13.89,18.3,33.06,8.64,50-5.48,11.32-9.11,24.56-13.19,36.53-9.85,29-13.2,41.17-10.21,71.6A21.3,21.3,0,0,1,479,264.43l-71.37,39.32L407,304c-13.34,5.71-33.44,2.05-46.93-6.79L347.76,306l-.46.27c-13,7.72-25,6.11-36.32-.41-9.48,7.08-18.62,11.47-32.14,12.21-12.54.69-22.43-3.27-31.86-9.5-8,8.6-16.87,15-30.37,15.49-10.28.39-18-2.62-25.23-7.66-10.85,9.63-21.67,15.95-38.19,17.08-12.12.81-21.68-2.79-30.76-8.63-6.07,7.95-13,14.71-23.86,17-18.8,4-32.07-3.09-43.55-14.61-17,20.35-39,37.57-67.37,28.48l-1.15-.36-45.57-24.87c-13.12-5.9-25.73-16.77-34.05-28.89a46,46,0,0,1-7.84-3.85c-23.2-13.59-46.95-26.35-69.64-40.81-18.35-11.7-25.17-32.2-26.48-53l-1.7-27.08c-6.72-6-12.51-13.51-15-22.17-3.64-12.73-2.55-27.17,1-39.8a73.1,73.1,0,0,1-7.15-5.51c-21.64-19-17.28-41.23,5.46-56.29C-186.66,34.74-161.58-13-130.93-23c19.58-6.39,42.44,0,57,14.39,24.75-21.28,55.44-30.25,84.54-10.72A21.25,21.25,0,0,1,26.48-46.27c20.58-4.47,42.64-7.59,59.65,3.9,10.49-12.82,23.92-25.88,38.47-29.78C141-76.53,160-68.07,171.77-55Z" transform="translate(234.05 73.31)"/><path class="cls-2" d="M-186.4,170.63c-7.45-5.73-13.13-12.47-15.12-19.42-3.78-13.15-1.08-29.78,4.39-42.27a51.52,51.52,0,0,1-14.4-9.11c-15.57-13.64-11.18-25.93,4.11-36C-180.16,45.73-151.6-2.88-127-10.92c19-6.2,42.69,3.67,51.52,21.54,11.84-13,26.71-23.81,44.19-27.43C-19-19.36-2.9-14.61,7.38-5.88A65.13,65.13,0,0,1,25.89.31c2.06-9.22-.57-14.58-3-23.32a8.5,8.5,0,0,1,6.34-10.8c20-4.33,44.42-9,58.37,10.56,12.92-17.91,27.2-33.06,40.34-36.58,14.52-3.88,35,8.46,40.78,23.51,8.43-7.61,17-13.13,24.69-14.31,13.29-2,32.69,9,40.08,23.2,2.24,4.35,2.5,7.66,4.77,16.91,6.64-9.19,10.61-15.79,20.57-16.68,41-3.65,55.71,19.94,55.35,50.49,43-12.31,90.72-25.49,132.75-28,41.13-2.5,57.07,23.85,57.69,47,.44,16.13-1.7,25.88-6.48,31.51-3.38,4-8.13,8.35-11.88,12.2,13.65,9.71,24.56,28.25,15.69,43.85-5.17,10.67-10,26.75-13.89,38.17-11.46,33.68-13.9,45.86-10.83,77a8.53,8.53,0,0,1-4.36,8.28l-70.81,39c-11.47,4.91-33.35-1.22-41.17-11.25l-20.07,14.3c-11.55,6.87-20.8,2.32-30.43-5.31-10.46,8.86-18.25,14.57-32.21,15.34-13.49.74-22.87-5.83-33.1-14.08-8.09,9.9-15.52,19.56-28.91,20.07-10.83.4-17.49-4.76-25.46-11.83-11.85,11.8-21.2,20.09-38.34,21.26-13.35.9-22.62-5.65-32.78-13.8-6.32,8.88-12.61,20.11-23.6,22.43-19.22,4.05-30.25-7.85-41.5-22.24-14.67,20.26-35.21,45.33-62.91,36.45l-45-24.54c-12.27-5.38-24.54-16.45-31.47-28.25a32.33,32.33,0,0,1-9.62-4c-22.58-13.23-47.38-26.59-69.23-40.57-11.41-7.23-19.23-20.7-20.61-43l-2.05-32.56Z" transform="translate(234.05 73.31)"/><path class="cls-3" d="M471.91,162.53c6.39-18.8,13.25-37.55,14.94-40.6C491,112.06,472.77,98,466,99.65c-15.89,6.1-49.22,43-65.2,71.57,1.61-5.61,44.82-76.68-16.55-70.54-2.29.23-2.58,1.63-2.22,3.13,4.21,17.53-5.56,31.36-13.9,51.87-6.34,15.6-12.08,32-14.6,45.76-15.59,17.08-33.82,30.83-46.6,23.2-6.35-3.85-8.66-13.4-8.69-24.16,12-2.15,23.29-5.32,33.84-10.8h0c21-9.86,31.47-42.66,30.39-56.37-1.54-17.63-30.06-37.86-45.23-33.93-12.32,2.88-26.37,17.49-36.67,36.38-9.1,16.72-16.48,46.57-16.32,67.35-10.91,14.79-22.29,28.63-24.44,24.66-8.73-16.12,10.37-63.36,29.81-111.5,3-7.54,4.7-11.6,7.59-19.08,3-9.57-14.3-10.54-22.69-10.26,8.36-1.89,20.58-4.43,28.94-6.31,85.72-19.45,161.94-37.08,195.92-24,4,1.5,4.9,3.48,6.8-2.1,3.95-11.47,3.16-44.73-38.21-42.23-41.91,2.54-98.09,18.71-154,34.54,8.1-33.91,4.1-58.4-30.87-57.16a2.54,2.54,0,0,0-2.43,2.94c2.19,13.84-3.79,38.43-12.69,67-18.83,5-37.16,9.56-54.37,13-1.89-29.76,22.37-81.25,24.92-85.22,6.36-8.27-15.71-22.18-22.55-21.14-10.86,1.65-35,27.46-56.41,61.31,2.76-18.19,13.4-52.26,13.73-55.43.62-6.26-14.12-17.3-20.95-15.47C113-38.24,81.38,16.51,66.52,45.34c5.84-20.4,30.48-74.51-22.07-65a2.55,2.55,0,0,0-2,3.35c4.95,14.23-4.94,37.48-12,56.17a299.86,299.86,0,0,0-11.2,35.2C9.85,87.66,2.22,96,.4,95.28-5.76,93.38,17.93,36,24.11,22.72c2.07-4.55-11.1-12-24.73-12.4C-5,3.93-18.7-2-27.8-.16c-21.92,4.54-41,25.44-53.89,48.92-8.63,15.69-14.63,32.48-16.7,46.52q-1.24-3.12-2.88-6.87c-2.87-7.29-18.84-22-11-41.5,2-6,4.17-8,7.28-7.59,11.75,1.44,17.21-6.79,15.92-16-1.8-12.9-19.59-22.32-32.6-18.07-18.78,6.14-43.58,51-76.35,72.72-6,3.94-8.56,3.58-2.29,9.07,23.41,20.49,46.54-3.34,56-21.32-1,23.3,21.8,36.36,21.76,58.43,0,6.89-1.37,11.52-7.43,15-8.22,4.75-14.23,7.09-18.56,6-2-.48-3.58-2.59-4.47-6.4-4.48-19,10.49-32.7,10.84-34.45.59-2.74-13.13-8-23.28-5.64-14.34,3.38-24.29,32-19.74,47.88,3.26,11.33,33.63,26.17,45.72,23.18,18.8-4.63,36.8-21.21,42.47-31.35a34.61,34.61,0,0,0,4.39-13.93c9,10.56,25.48,18.27,33.57,15,10.55-3.16,21.67-20.84,26.32-27.52,4.65,13.61,15.87,18.48,28.79,17.32,6.57-.6,15.32-10.48,23.87-23,6.31,8.3,18.9,16.81,26.21,16.42,6.78-1.1,4.78-6.82,5.64-8.08A774.27,774.27,0,0,1,114.93-2.56c-12.69,34.59-14.09,52.12-14.74,59-1.43,14.91,18.93,25.25,30.2,25.47,5.46.34,3.36-3.58,7.44-11.85C151,42.63,165.19,18.93,186.47-5.55c-10.06,21.17-17.6,43.42-21,59-6.11,27.65-10.7,53.86,13.33,49.4,19.58-3.63,39.34-7.73,58.91-12-14.32,42.37-30.71,87.78-35.1,118.08-17.18,21.77-41.23,44.91-57,35.49-6.34-3.85-8.65-13.39-8.69-24.16,12-2.15,23.3-5.32,33.85-10.8h0c21-9.85,31.46-42.66,30.39-56.37-1.55-17.63-30.06-37.86-45.23-33.92-12.32,2.87-26.37,17.48-36.67,36.38-9,16.5-16.28,45.78-16.33,66.51-11.36,14.15-24,28.63-25.94,25.7-2.08-3.19,3.2-20.27,10-40,4.68-13.54,24.32-51-20.73-49.7-2.89.09-2.81,1.62-2.38,3.22,4.51,16.72-9.13,39-15,56.4-6.23,18.47-9.67,33.72-9.24,37.39,2.12,18.41,26.73,31.78,36.67,29.3,5.75-.77,20.07-21.09,32.1-40.09,10.23,16.77,32.7,29.43,43,28.56,16.69-.78,33.51-15.43,47.44-32.68q2.15-2.67,4.2-5.4c5,14.67,21.83,25.9,31.49,25.94,9.35-.16,23.49-17.85,35.34-35.89,10.31,16.62,32.57,29.12,42.83,28.26,15-.71,30.06-12.56,43.06-27.45,5.82,9.1,17.31,18.66,24.9,19,6.38-.43,6-6.33,5.77-7.89,8.17-27,22.1-50.24,35.06-68a377,377,0,0,1,29.45-35c-14.45,25.66-29.17,66.38-28.17,74.28,2,15.88,18.11,27.27,29.4,30.29,6.61,1.77,6.79-.39,6.44-7.16-1.39-26.3,5.47-45.71,13.25-68.6ZM138.51,202.6A95.3,95.3,0,0,1,144,182.74c6.18-14.45,21-39.2,29.52-41-1.85,21.95-17.63,50-35,60.83ZM98.75,152.31c5.77-12.24,9.64-16.39,13.5-23.39,12.51-22.73.21-36.67-24.09-37.87-.14,10.88-7.39,18.27-10.84,30.24-4.34,15.09,1.9,25.09,21.43,31ZM-60.17,104.89c-11.39,2.29,10-71.44,52.09-83.65-.55.89-10.94,21.49-22.58,41.85s-24.76,40.84-29.51,41.8Zm106.61,65c-2.47-17.29-34-31.16-38.66-23.54-1.38,2.88.88,3.23,3.07,5.83,10.59,12.45-.46,54.79-13.6,80.38s-30.49,47.21-35.45,44.15c-7.85-7.13,0-72.35,25.81-98.05,4.29-4.27-11.9-13.77-22.64-10.55-27.72,8.3-93.1,40.44-125.62,35.76-5.73-.82-6.86-.33-6,5.16,9.52,59.64,92.89,6.34,122-8.93C-58.84,213.29-68,219.65-70.94,232.21c-2.9,14.64-3.78,29-2.7,40.36,1.11,20,31.4,33.51,35.67,32.85C.94,301.51,51.9,208.25,46.44,169.87Zm253.37,12.95A95.32,95.32,0,0,1,305.34,163c6.17-14.45,21-39.2,29.51-41-1.85,21.94-17.62,50-35,60.82Z" transform="translate(234.05 73.31)"/></svg>